<?xml version="1.0" standalone="no"?>
<!DOCTYPE svg PUBLIC "-//W3C//DTD SVG 20010904//EN"
 "http://www.w3.org/TR/2001/REC-SVG-20010904/DTD/svg10.dtd">
<svg version="1.0" xmlns="http://www.w3.org/2000/svg"
 width="3200.000000pt" height="1948.000000pt" viewBox="0 0 3200.000000 1948.000000"
 preserveAspectRatio="xMidYMid meet">
<g transform="translate(0.000000,1948.000000) scale(0.400000,-0.400000)"
fill="#000000" stroke="none">
<path d="M886 4854 c-12 -11 -25 -14 -47 -9 -25 6 -36 2 -57 -18 -15 -14 -38
-28 -52 -32 -14 -4 -41 -18 -61 -31 -44 -30 -207 -102 -401 -178 -158 -62
-202 -89 -243 -151 -37 -56 -32 -131 13 -202 32 -50 80 -82 102 -68 6 4 17 1
25 -5 13 -11 15 -7 16 21 l1 34 10 -30 c13 -37 23 -43 54 -37 19 3 24 10 24
36 l0 31 22 -35 22 -35 7 30 c4 17 7 22 8 13 2 -30 31 -21 31 10 0 21 5 27 23
28 15 1 27 -6 33 -20 13 -30 28 -26 32 8 3 21 6 25 12 16 7 -11 11 -11 24 -1
9 8 16 22 16 32 0 22 44 53 80 57 69 7 177 3 235 -9 l65 -13 -44 -17 c-84 -32
-214 -143 -203 -173 4 -11 -1 -18 -19 -22 -20 -5 -24 -11 -20 -27 4 -15 2 -17
-7 -8 -17 17 -29 13 -22 -9 5 -15 3 -18 -9 -14 -9 4 -23 1 -30 -5 -11 -10 -16
-8 -21 8 -3 12 -13 21 -21 21 -17 0 -34 -38 -27 -60 3 -10 -1 -8 -11 4 -9 11
-16 23 -16 28 0 4 -7 8 -16 8 -14 0 -15 -7 -10 -42 6 -41 5 -42 -10 -23 -12
15 -18 17 -21 7 -4 -10 -11 -8 -29 9 -27 26 -41 20 -25 -10 11 -20 -2 -41 -14
-21 -12 19 -26 10 -20 -12 5 -18 4 -20 -4 -8 -7 11 -13 12 -21 4 -24 -24 47
-126 107 -150 68 -29 131 -19 254 40 63 30 165 69 229 86 122 33 204 75 220
113 5 12 25 40 45 62 l35 40 0 -67 c0 -38 4 -68 9 -68 15 0 22 65 15 135 -6
59 -5 65 10 59 15 -6 16 -20 11 -123 -5 -83 -4 -112 4 -101 6 8 11 35 12 60 2
73 17 9 18 -77 1 -42 5 -73 11 -73 6 0 10 12 11 28 0 15 16 -24 34 -86 39
-130 40 -132 64 -132 20 0 71 -43 71 -60 0 -15 -9 -13 -38 11 -42 32 -40 3 2
-40 32 -33 35 -39 22 -50 -9 -7 -40 -14 -71 -14 -46 -2 -55 1 -55 15 0 10 -6
18 -13 18 -25 0 -37 -24 -38 -75 0 -27 -3 -44 -6 -37 -9 22 -31 13 -41 -18 -6
-16 -14 -69 -18 -117 -4 -49 -10 -98 -15 -110 -8 -21 -10 -22 -51 -7 -24 8
-68 31 -98 52 -53 37 -55 40 -61 93 -9 79 -50 150 -69 119 -5 -8 -9 -7 -13 4
-4 9 -18 16 -32 16 -31 0 -33 -17 -2 -23 l22 -4 -22 -2 c-29 -1 -29 -3 7 -41
17 -19 30 -43 30 -59 0 -58 45 -141 76 -141 21 0 109 -50 143 -81 18 -16 36
-29 40 -29 5 0 25 11 46 26 40 27 71 26 127 -2 41 -21 77 -18 88 9 5 12 9 17
9 10 1 -6 -7 -25 -16 -42 -17 -28 -11 -60 6 -32 11 16 21 -8 21 -50 0 -19 -4
-27 -13 -23 -8 3 -37 -11 -66 -31 -56 -37 -91 -44 -111 -21 -6 8 -18 12 -26 9
-8 -3 -14 1 -14 9 0 22 -49 68 -73 68 -26 0 -67 -26 -67 -42 0 -6 10 -8 24 -4
15 4 28 0 37 -10 18 -22 68 -46 79 -39 6 4 10 -14 10 -44 0 -46 2 -51 32 -65
17 -9 33 -16 35 -16 2 0 28 26 59 57 51 53 57 56 68 41 12 -17 14 -17 28 0 25
29 99 142 155 236 42 72 53 84 53 63 0 -46 17 -30 23 22 3 27 19 79 36 115 25
55 34 66 54 66 21 0 25 -6 30 -42 8 -57 -10 -94 -120 -253 -94 -135 -193 -292
-193 -307 0 -24 25 -1 66 62 26 38 53 70 61 70 27 0 72 40 117 103 60 86 91
151 115 241 10 43 21 80 24 82 8 8 65 -18 71 -32 16 -41 -80 -208 -201 -349
-132 -153 -233 -316 -195 -315 4 1 32 37 62 83 30 45 90 121 132 170 98 111
161 199 193 269 14 30 34 63 45 73 20 18 20 18 4 -36 -38 -129 -112 -243 -205
-315 -71 -55 -80 -75 -24 -54 l27 10 -32 -40 c-47 -59 -28 -62 31 -4 68 65
162 186 243 312 36 56 68 102 70 102 2 0 1 -11 -2 -25 -3 -18 0 -25 12 -25 9
0 16 -4 16 -10 0 -21 -42 -115 -75 -166 -19 -30 -35 -59 -35 -64 0 -5 -9 -14
-20 -20 -11 -6 -48 -32 -82 -58 -58 -43 -153 -95 -220 -121 -16 -6 -28 -18
-28 -27 0 -21 30 -14 130 31 41 18 87 36 101 39 34 7 163 143 221 232 51 79
105 144 120 144 6 0 -4 -14 -21 -32 -19 -20 -31 -42 -31 -59 0 -41 -76 -175
-127 -223 -55 -53 -124 -95 -248 -151 -105 -47 -132 -65 -99 -65 33 0 158 46
234 85 77 41 180 130 225 196 17 23 40 53 53 65 12 13 22 28 22 34 0 6 5 8 10
5 20 -12 9 -44 -36 -111 -61 -90 -106 -136 -176 -181 -32 -20 -58 -41 -58 -45
0 -36 156 67 264 176 46 46 87 82 90 78 15 -14 -2 -38 -109 -151 -63 -67 -115
-124 -115 -126 0 -22 46 11 140 102 82 79 114 103 120 93 6 -10 14 -7 35 16
26 29 26 29 10 2 -9 -15 -32 -39 -51 -53 -41 -31 -106 -130 -102 -154 2 -11
22 7 63 57 33 39 65 72 72 72 17 0 17 -3 -8 -45 -31 -53 -17 -53 26 -1 46 57
62 59 35 6 -29 -56 -27 -84 3 -46 19 24 25 26 35 14 9 -12 7 -19 -13 -38 -46
-44 -23 -57 27 -15 45 38 80 30 90 -20 2 -13 14 -22 33 -25 30 -6 30 -6 -10
-15 -22 -4 -44 -9 -50 -9 -28 -3 -95 -58 -100 -84 -23 -106 -28 -117 -99 -188
-46 -45 -99 -86 -149 -114 -43 -23 -92 -54 -108 -67 -25 -21 -42 -25 -128 -30
-93 -5 -101 -4 -143 21 -55 32 -78 33 -123 3 -31 -19 -35 -27 -35 -65 0 -39 5
-48 53 -95 70 -70 124 -104 264 -167 65 -29 119 -54 121 -55 2 -2 9 -26 17
-54 15 -57 19 -54 -46 -35 -26 7 -55 -18 -70 -63 -10 -32 -8 -38 25 -86 20
-29 56 -76 80 -106 l44 -53 6 -132 c3 -72 9 -169 12 -215 7 -99 -8 -189 -42
-248 -17 -29 -24 -57 -24 -92 0 -31 -4 -51 -11 -51 -7 0 -9 -13 -5 -38 12 -68
9 -81 -59 -220 -86 -174 -98 -192 -135 -192 -17 0 -33 -7 -39 -17 -8 -15 -10
-16 -15 -3 -3 8 -6 25 -8 37 -3 21 -3 21 -65 -7 -49 -22 -63 -34 -63 -50 0
-21 -3 -21 -67 -14 -38 4 -78 13 -90 21 -26 17 -64 11 -111 -17 -25 -15 -32
-27 -32 -50 0 -16 4 -30 10 -30 5 0 7 -7 4 -15 -9 -22 18 -28 85 -17 38 5 62
5 64 -1 1 -5 55 -11 119 -14 97 -4 132 -1 210 17 64 15 108 20 141 16 38 -6
47 -4 47 9 0 11 -11 15 -37 16 l-38 1 32 8 c18 4 51 26 74 50 38 39 40 44 29
70 -10 25 -9 33 8 57 11 15 21 37 24 48 3 16 7 13 23 -19 21 -41 49 -66 61
-54 4 4 -3 31 -14 60 -32 79 -42 135 -28 148 7 5 25 33 40 61 22 40 27 59 22
88 -5 32 -2 42 19 61 24 23 25 28 25 154 -1 72 -5 194 -10 271 -5 77 -12 202
-16 277 l-7 137 41 41 c47 45 52 64 22 82 -22 14 -26 38 -8 56 18 18 18 93 0
124 -15 26 -14 29 14 70 65 95 359 367 398 368 5 0 -12 -24 -38 -54 -25 -30
-46 -63 -46 -73 0 -12 18 -32 49 -52 28 -17 65 -51 83 -74 18 -23 38 -46 45
-52 35 -28 105 -227 128 -365 18 -105 20 -110 41 -110 9 0 14 11 14 30 0 30 0
30 25 14 18 -12 36 -15 66 -10 l41 7 -20 -28 c-11 -16 -29 -37 -41 -47 -27
-24 -26 -33 4 -77 20 -31 34 -39 92 -54 133 -34 165 -48 241 -104 113 -85 261
-243 295 -317 16 -33 41 -68 56 -79 27 -18 28 -19 13 -45 -16 -27 -15 -29 20
-61 32 -31 37 -42 44 -104 5 -39 8 -123 9 -187 0 -112 -1 -118 -26 -145 -15
-15 -34 -43 -44 -61 -12 -26 -20 -32 -33 -26 -9 4 -35 9 -57 11 -34 4 -44 0
-69 -26 -35 -37 -46 -38 -70 -10 -15 18 -25 20 -58 15 -49 -8 -97 -32 -105
-52 -8 -21 -1 -24 32 -16 16 5 45 5 64 0 20 -4 48 -10 63 -13 16 -3 27 -11 25
-17 -1 -7 7 -13 18 -15 11 -2 30 -9 43 -15 18 -9 31 -9 55 1 18 7 57 17 87 22
99 17 103 20 150 119 4 8 16 16 27 18 17 3 21 18 34 115 l15 112 23 -37 c28
-46 55 -52 45 -11 -4 16 -13 38 -20 50 -8 12 -14 33 -14 46 0 15 -10 31 -24
40 -29 19 -66 93 -66 131 0 16 5 45 11 66 10 32 8 48 -15 115 -14 43 -35 92
-45 109 -23 37 -135 146 -325 316 -166 149 -222 214 -231 270 -7 42 -27 60
-66 60 -18 0 -20 3 -11 12 19 19 14 73 -9 102 -16 20 -29 26 -60 26 -37 0 -40
3 -64 51 -42 82 -67 192 -68 305 -2 82 1 103 15 117 18 18 38 22 38 8 0 -5 -6
-11 -12 -13 -19 -7 18 -58 41 -58 19 0 51 29 51 48 0 6 12 17 28 24 17 8 31
25 37 46 5 18 14 31 20 29 25 -9 10 -38 -57 -111 -52 -57 -69 -81 -58 -84 19
-6 85 -72 91 -90 6 -18 79 50 79 73 0 8 10 19 23 24 13 5 35 27 50 50 15 23
29 41 32 41 13 0 1 -22 -36 -69 -33 -42 -38 -52 -25 -57 9 -3 16 -10 16 -15 0
-6 -8 -5 -19 1 -16 8 -23 5 -40 -16 -30 -38 -26 -58 14 -77 44 -21 66 -56 76
-118 14 -85 89 -230 89 -171 0 12 -11 56 -25 99 -13 42 -22 79 -19 82 8 8 58
-35 71 -60 6 -13 18 -69 26 -124 19 -119 33 -163 48 -148 8 8 8 44 2 117 -5
58 -6 106 -2 106 11 0 37 -34 50 -65 6 -17 11 -48 10 -70 -2 -43 21 -173 38
-217 6 -16 18 -28 27 -28 13 0 15 6 10 28 -8 33 -25 216 -21 220 9 10 44 -21
55 -48 7 -16 16 -30 20 -30 5 0 4 -12 -2 -28 -14 -35 9 -209 24 -194 6 6 12
23 14 39 1 15 6 55 10 88 l7 60 37 -42 c34 -39 36 -45 30 -86 -3 -25 -4 -88 0
-142 6 -86 9 -100 29 -116 31 -25 61 -25 61 0 0 11 -7 26 -15 35 -19 19 -20
151 -2 184 13 23 13 23 31 3 15 -17 19 -42 22 -165 3 -152 11 -186 44 -186 24
0 24 -3 0 45 -11 22 -19 51 -19 65 2 22 2 23 6 3 2 -12 11 -27 20 -35 14 -11
15 -8 8 29 -3 24 -4 72 0 108 l7 65 40 -36 c24 -21 46 -33 55 -30 8 3 17 6 19
6 2 0 4 4 4 9 0 5 14 24 31 42 17 18 35 44 40 58 5 13 12 21 15 18 8 -8 -36
-109 -59 -134 -15 -17 -27 -21 -48 -16 -24 5 -30 1 -39 -21 -5 -15 -10 -68
-10 -117 0 -75 3 -89 16 -89 10 0 14 6 10 15 -9 25 2 17 18 -12 15 -27 15 -25
16 50 0 116 21 141 76 94 26 -22 26 -25 11 -48 -12 -19 -16 -49 -15 -137 1
-108 2 -114 26 -133 25 -20 52 -25 52 -11 0 5 -13 26 -30 48 -28 38 -41 94
-20 94 6 0 10 -11 10 -25 0 -14 5 -25 10 -25 12 0 13 20 1 39 -15 24 24 111
50 111 4 0 22 -12 39 -26 l31 -27 37 43 c20 24 45 55 54 69 15 21 18 23 18 8
0 -11 -9 -30 -20 -44 -12 -16 -18 -34 -14 -48 6 -25 -14 -35 -73 -35 l-31 0 5
-117 c5 -97 9 -120 26 -140 51 -58 81 -8 47 78 -17 42 -20 65 -15 106 7 57 9
59 41 40 58 -33 111 -97 67 -80 -12 5 -15 2 -10 -10 3 -9 9 -61 13 -116 6 -91
9 -102 31 -116 32 -22 57 -15 61 15 2 24 2 24 -13 6 -16 -21 -17 -21 -34 12
-11 20 -10 24 6 28 16 5 18 14 15 75 -5 88 2 96 63 79 43 -12 45 -14 40 -44
-3 -17 -1 -73 3 -125 5 -72 11 -96 24 -105 22 -13 35 -1 18 19 -10 12 -10 18
0 29 6 8 11 32 9 53 -1 21 1 53 5 70 7 31 10 33 52 33 40 0 44 2 44 25 0 17 4
23 15 19 13 -5 13 -10 -1 -36 -11 -21 -12 -33 -5 -42 7 -9 7 -16 0 -23 -12
-12 8 -173 22 -173 5 0 9 5 9 11 0 8 5 8 15 -1 23 -19 18 -31 -10 -24 -14 3
-25 4 -25 1 0 -14 34 -37 56 -37 20 0 24 5 24 28 0 15 -7 38 -16 50 -9 14 -14
38 -12 65 3 38 6 42 31 45 16 2 39 -4 53 -13 23 -15 24 -20 24 -120 0 -100 1
-105 25 -121 50 -32 69 1 40 69 -30 72 -9 136 38 121 28 -9 80 -64 61 -64 -10
0 -14 -13 -14 -44 0 -24 -2 -56 -5 -72 -4 -21 1 -37 19 -59 l25 -30 20 20 c20
20 21 22 4 63 -14 37 -14 48 -3 82 15 46 34 51 74 19 18 -14 26 -30 26 -52 0
-18 4 -49 9 -69 5 -22 5 -40 -1 -46 -12 -12 5 -47 27 -56 14 -5 47 6 64 20 2
2 -7 19 -19 38 -16 27 -20 44 -15 67 5 22 3 34 -6 40 -11 7 -10 9 4 9 9 0 17
4 17 9 0 6 12 6 30 -1 31 -10 34 -17 44 -92 3 -22 10 -43 17 -46 7 -5 9 -19 4
-39 -6 -30 -6 -31 29 -31 41 0 44 9 21 63 -18 43 -10 97 14 96 9 0 25 -4 36
-8 20 -8 22 -14 27 -124 3 -52 16 -67 60 -67 38 0 43 15 19 54 -32 51 -26 106
11 106 26 0 60 -19 53 -29 -3 -5 2 -27 10 -50 8 -23 12 -48 8 -56 -15 -39 66
-63 93 -27 17 22 17 32 1 32 -22 0 -48 35 -41 54 4 10 1 28 -6 41 -9 17 -9 27
-1 41 10 16 10 15 5 -8 -5 -25 -3 -28 19 -28 13 0 29 -6 34 -12 14 -19 33 -90
31 -113 -4 -23 43 -49 72 -40 25 8 25 23 0 55 -28 35 -26 68 4 76 41 10 64
-11 72 -64 9 -62 18 -78 50 -86 38 -10 49 6 29 44 -35 67 6 119 55 70 17 -17
21 -29 16 -55 -5 -27 -3 -36 16 -49 28 -20 64 -21 71 -2 3 7 -3 26 -13 41 -25
37 -11 68 28 63 24 -3 28 -9 37 -58 l11 -55 42 -3 c47 -4 56 12 23 42 -11 10
-17 24 -15 31 3 7 1 16 -5 20 -6 3 -11 14 -11 23 0 11 3 13 8 6 4 -6 23 -14
44 -18 39 -7 48 -20 48 -72 0 -34 0 -34 45 -34 33 0 45 4 45 15 0 8 -4 15 -9
15 -5 0 -27 26 -48 59 -29 42 -35 57 -22 54 23 -6 34 14 17 34 -11 14 -11 15
2 11 11 -4 14 -18 12 -53 -2 -46 -1 -47 23 -41 32 8 82 -3 64 -15 -10 -6 -10
-10 0 -22 7 -9 11 -24 9 -34 -2 -14 4 -19 31 -21 45 -5 64 15 34 35 -29 19
-29 40 -2 48 28 9 57 -19 61 -59 3 -27 7 -31 36 -34 24 -2 32 1 32 13 0 20
-49 95 -64 96 -11 0 22 17 38 18 4 1 5 -10 2 -23 -5 -22 -2 -24 44 -30 60 -8
82 1 54 21 -19 14 -19 15 1 11 12 -2 21 -13 23 -26 3 -18 10 -22 37 -22 18 0
41 -3 50 -6 11 -5 18 0 22 15 3 11 9 21 14 21 13 0 11 -11 -5 -29 -8 -9 -17
-28 -21 -43 -6 -23 -3 -28 19 -34 14 -3 26 -10 26 -15 0 -5 4 -9 9 -9 16 0 19
39 5 57 -7 10 -14 21 -14 24 0 12 31 19 56 13 19 -5 23 -11 18 -28 -6 -25 18
-52 37 -41 6 4 9 21 7 37 -5 28 -3 29 31 26 31 -3 36 -7 39 -31 3 -22 8 -27
32 -27 25 0 29 3 27 27 -3 38 33 38 51 1 16 -35 53 -39 49 -6 -2 18 3 23 23
23 20 0 26 -6 30 -30 6 -36 46 -45 43 -10 -2 25 16 36 38 24 20 -10 14 -50 -6
-43 -7 3 -16 1 -20 -5 -4 -7 10 -11 40 -11 41 0 46 2 40 19 -7 22 23 38 39 20
8 -8 8 -13 -1 -16 -22 -8 -14 -23 12 -23 16 0 25 6 25 15 0 8 9 15 20 15 13 0
18 -5 14 -15 -4 -10 3 -16 23 -20 15 -3 51 -12 79 -20 78 -23 84 -21 84 25 0
30 -5 43 -23 55 -36 23 -127 47 -163 43 -23 -3 -30 0 -27 9 3 9 -4 13 -21 13
-15 0 -38 8 -52 17 -21 13 -30 14 -45 5 -11 -7 -20 -8 -24 -2 -3 6 -22 10 -40
10 -19 0 -55 7 -80 15 -39 14 -48 14 -72 2 -24 -13 -30 -13 -55 6 -24 18 -32
19 -48 9 -14 -8 -27 -9 -46 -2 -15 6 -45 11 -68 11 -114 1 -163 6 -185 18 -14
8 -40 11 -62 8 -24 -3 -45 0 -56 9 -10 7 -42 14 -71 14 -32 0 -63 7 -78 16
-22 15 -30 15 -65 4 -30 -10 -42 -11 -51 -2 -15 15 -58 15 -92 2 -21 -8 -27
-6 -37 12 -10 18 -17 20 -67 14 -48 -6 -58 -4 -78 15 -20 19 -27 20 -70 11
-42 -9 -51 -8 -72 9 -27 21 -72 25 -101 9 -14 -7 -24 -4 -41 15 -24 25 -73 34
-85 15 -10 -15 -42 6 -57 37 -17 35 -41 40 -84 17 l-34 -18 -34 37 c-33 37
-66 42 -66 11 0 -25 -46 6 -64 43 -17 37 -26 38 -121 21 -15 -2 -22 5 -31 32
-11 31 -16 35 -45 34 -19 -1 -43 -5 -55 -8 -16 -6 -23 -1 -34 21 -7 15 -14 35
-14 43 -1 9 -17 19 -39 24 -31 8 -39 7 -51 -9 -17 -23 -46 -13 -46 15 0 17 -4
20 -21 15 -19 -6 -20 -4 -14 25 7 30 6 31 -14 18 -12 -7 -21 -18 -21 -25 0
-22 -37 -14 -53 10 -8 13 -20 43 -27 66 -8 30 -18 45 -36 51 -38 15 -71 12
-78 -6 -9 -23 -27 -13 -48 27 -17 32 -17 35 -1 47 17 13 17 14 -1 28 -32 23
-85 18 -108 -11 -25 -32 -33 -32 -48 5 -11 26 -10 33 5 50 21 23 16 33 -30 54
-35 17 -35 17 -68 -13 -38 -37 -64 -42 -47 -11 6 12 10 29 8 40 -2 10 -1 19 2
18 12 -3 50 24 50 35 0 15 -51 47 -75 47 -10 0 -33 -13 -52 -30 -39 -35 -49
-37 -62 -12 -13 25 -2 71 20 83 26 13 24 41 -5 68 l-25 23 -30 -22 c-17 -12
-31 -29 -31 -39 0 -20 -42 -23 -61 -4 -19 19 -3 78 26 91 33 15 32 46 -3 71
-29 20 -52 14 -52 -13 0 -14 -56 -46 -79 -46 -10 0 -21 12 -27 27 -8 24 -6 31
21 54 16 14 41 33 54 42 l24 16 -32 31 c-31 32 -61 37 -69 12 -2 -7 5 -16 17
-19 12 -3 21 -11 21 -17 0 -17 -59 -66 -66 -55 -3 5 -12 9 -20 9 -22 0 -51 31
-59 62 -6 24 -1 33 34 64 23 21 41 43 41 50 0 13 -65 74 -80 74 -5 0 -23 -20
-41 -44 -36 -51 -53 -61 -69 -42 -8 10 -6 15 6 20 15 6 15 8 1 30 -15 23 -15
24 11 29 15 4 45 23 66 43 l40 36 -31 13 c-17 7 -34 18 -37 24 -9 15 -49 14
-64 -1 -17 -17 -15 -26 6 -31 15 -3 15 -5 -3 -11 -11 -4 -32 -14 -47 -22 -33
-18 -52 -18 -67 0 -9 10 -8 16 4 26 8 7 15 21 15 31 0 13 15 27 45 41 28 14
45 29 45 40 0 17 -67 98 -82 98 -10 0 -38 -55 -38 -75 0 -10 5 -13 13 -9 7 5
6 1 -3 -10 -8 -10 -16 -14 -18 -8 -2 6 -13 6 -32 -1 -37 -14 -56 1 -62 49 -3
29 0 39 20 52 13 10 38 29 54 43 31 25 31 25 13 53 -38 58 -85 54 -150 -13
-41 -43 -69 -52 -79 -25 -3 8 -2 13 2 10 4 -2 14 -1 22 4 12 7 11 13 -8 33
l-22 23 28 27 c15 15 33 27 39 27 9 0 23 21 23 36 0 6 -61 35 -83 40 -34 6
-57 -5 -78 -39 l-19 -32 0 47 c0 41 5 51 37 81 42 41 40 62 -10 71 -19 3 -51
21 -71 39 -29 25 -38 43 -46 84 -7 40 -22 69 -60 118 -27 35 -50 67 -50 69 0
11 -64 106 -71 106 -5 0 -9 4 -9 10 0 45 -279 284 -384 330 -25 10 -46 24 -46
31 0 6 -8 9 -18 7 -11 -3 -40 11 -76 38 -32 24 -64 44 -71 44 -7 0 -15 9 -18
20 -4 14 -11 18 -24 14 -14 -5 -15 -4 -4 4 20 15 6 42 -22 42 -14 0 -42 -7
-63 -16 -97 -41 -132 -36 -42 7 71 33 81 53 45 85 -30 26 -56 25 -87 -2 -9 -7
-35 -16 -58 -20 -33 -5 -42 -4 -42 8 0 20 29 45 62 53 68 17 61 64 -18 129
-64 52 -100 59 -149 26 -41 -27 -75 -27 -68 1 4 12 0 25 -8 30 -10 6 -8 9 9 9
14 0 26 8 31 23 17 46 -18 69 -59 39 -14 -11 -45 -29 -68 -40 -52 -25 -56 -9
-12 41 51 58 35 87 -25 47 -33 -22 -44 -24 -64 -11 -11 7 -10 13 4 34 23 35
12 47 -40 47 -40 0 -46 3 -61 31 -14 28 -19 30 -50 24 -33 -6 -36 -4 -47 24
-12 32 -42 42 -64 20 -7 -7 -14 0 -23 23 -16 39 -29 49 -52 42 -13 -4 -19 2
-24 23 -4 15 -22 43 -41 61 -28 28 -33 40 -31 70 3 30 -1 37 -20 41 -21 6 -22
8 -8 26 24 31 19 45 -16 45 l-31 0 21 23 c31 32 28 47 -10 47 -29 0 -30 1 -15
18 27 29 21 39 -35 61 -29 11 -48 20 -41 20 7 1 24 12 38 25 36 34 22 60 -33
61 -22 1 -47 7 -56 14 -14 12 -13 17 14 47 44 50 32 66 -44 59 -33 -3 -54 -2
-46 1 19 9 30 25 30 47 0 13 -8 17 -32 17 -75 0 -104 11 -115 41 -7 18 -18 29
-30 29 -30 0 -100 37 -142 75 -42 38 -80 45 -105 19z m164 -124 c27 -15 25
-30 -5 -30 -73 0 -98 -51 -45 -92 99 -76 101 -81 22 -82 l-47 -1 -17 85 c-9
47 -17 98 -18 114 0 28 1 29 45 22 25 -3 55 -10 65 -16z m-442 -129 l-23 -40
38 -38 c44 -46 45 -53 11 -53 -14 0 -37 -9 -51 -20 -34 -27 -45 -25 -37 5 7
29 -2 31 -34 9 -13 -9 -24 -14 -26 -13 -19 26 -36 56 -36 65 0 20 166 141 178
129 2 -2 -7 -21 -20 -44z m1000 -1250 c5 -29 -50 -144 -116 -245 l-52 -79 0
62 c0 129 153 368 168 262z m724 -1218 c-27 -32 -56 -71 -65 -88 -8 -16 -30
-50 -48 -74 l-32 -45 -18 23 c-29 35 -23 63 20 105 30 30 173 131 189 135 2 1
-18 -25 -46 -56z"/>
</g>
</svg>
